PathFileType	4	(X/Y/Z)	C:/Users/opensim2020/Desktop/walking_exp_matlab/subject03/subject03_trc/subject03_walking16_run_cyclic.trc	
DataRate	CameraRate	NumFrames	NumMarkers	Units	OrigDataRate	OrigDataStartFrame	OrigNumFrames	
100.00	100.00	9	49	mm	100.00	222	67	
Frame#	Time	RKNE			RTOE			RWRB			LTHI			RELB			RFRM			RUPA			RASI			LTIB			RWRA			RTHI			LSHO			LTOE			RTIB			LWRA			CLAV			LASI			RSHO			RFHD			STRN			LHEE			RFIN			RBHD			LFRM			C7			LWRB			LFIN			LUPA			LBHD			LELB			RANK			RHEE			RBAK			LPSI			T10			LFHD			RPSI			LKNE			LANK			*39			*40			*41			*42			*43			*44			*45			*46			*47			*48			
		X1	Y1	Z1	X2	Y2	Z2	X3	Y3	Z3	X4	Y4	Z4	X5	Y5	Z5	X6	Y6	Z6	X7	Y7	Z7	X8	Y8	Z8	X9	Y9	Z9	X10	Y10	Z10	X11	Y11	Z11	X12	Y12	Z12	X13	Y13	Z13	X14	Y14	Z14	X15	Y15	Z15	X16	Y16	Z16	X17	Y17	Z17	X18	Y18	Z18	X19	Y19	Z19	X20	Y20	Z20	X21	Y21	Z21	X22	Y22	Z22	X23	Y23	Z23	X24	Y24	Z24	X25	Y25	Z25	X26	Y26	Z26	X27	Y27	Z27	X28	Y28	Z28	X29	Y29	Z29	X30	Y30	Z30	X31	Y31	Z31	X32	Y32	Z32	X33	Y33	Z33	X34	Y34	Z34	X35	Y35	Z35	X36	Y36	Z36	X37	Y37	Z37	X38	Y38	Z38	X39	Y39	Z39	X40	Y40	Z40	X41	Y41	Z41	X42	Y42	Z42	X43	Y43	Z43	X44	Y44	Z44	X45	Y45	Z45	X46	Y46	Z46	X47	Y47	Z47	X48	Y48	Z48	X49	Y49	Z49	

29	0.280	360.15811	-540.26740	439.25613	343.63474	-865.53491	130.59506	467.50314	-669.15210	855.03192	79.43114	-708.19061	583.84082	497.18542	-790.64838	1041.69751	481.60205	-720.49731	935.07629	469.95749	-774.47809	1136.70117	352.64731	-671.74133	868.42395	140.78848	-783.21387	240.89552	427.61044	-650.37073	886.78046	396.74408	-638.23370	591.63501	58.55041	-658.69031	1304.96216	225.71758	-758.64728	31.80229	373.40359	-693.72736	351.37335	96.49882	-526.98297	879.51678	214.07870	-617.79968	1270.45581	117.72392	-687.60150	877.18427	367.55527	-677.08350	1314.38611	282.57220	-663.57397	1568.15149	218.13167	-595.86932	1097.53809	235.32655	-949.82037	50.04792	458.14917	-603.42792	835.40839	264.10092	-761.29254	1482.07495	5.12294	-576.68127	950.18781	197.57352	-741.06555	1352.73633	44.79714	-499.73611	879.47626	75.08919	-487.34250	792.30188	-36.66422	-669.40649	1127.66162	135.31247	-738.35608	1479.53735	-52.49558	-657.45514	1016.61456	352.10471	-894.09875	268.18124	303.56433	-949.40552	288.93939	300.55499	-811.47662	1198.10107	179.22404	-843.16400	916.01031	237.51360	-814.74304	1058.08801	151.50844	-636.09991	1566.32825	327.23712	-829.31573	914.04596	122.93023	-672.73279	408.23328	198.11957	-897.64703	71.43629																						183.80661	-744.19141	1590.57446						 
30	0.290	359.72672	-490.76050	453.86929	343.00369	-789.90533	121.02097	472.73486	-653.42169	860.48962	81.17685	-690.88092	580.27405	498.11356	-774.56805	1048.57642	484.98447	-704.63885	941.06079	469.31693	-754.50476	1142.82654	352.36087	-640.75079	870.17670	140.95433	-778.21576	240.21330	433.90356	-632.82465	892.33344	396.31924	-599.36072	598.95782	59.48313	-626.02386	1307.93689	225.77348	-758.64697	31.90183	373.42249	-637.30383	353.52301	109.96955	-477.08292	899.79016	215.82034	-585.97614	1270.92383	116.86440	-657.63031	875.72852	368.46545	-647.75696	1314.87244	282.42941	-631.71143	1569.45935	218.64381	-564.47394	1098.10730	233.40126	-950.26166	53.20663	466.56696	-587.53625	840.63733	265.04242	-729.35681	1483.12439	14.54927	-531.15405	961.06415	198.35904	-709.09070	1353.66821	58.30606	-449.93079	897.67578	95.08083	-430.60254	814.54504	-33.28203	-632.83295	1129.18945	136.23105	-706.75470	1479.52844	-45.29645	-616.16675	1018.69928	352.57886	-831.21777	254.96577	304.61765	-889.03131	270.93158	298.29724	-781.35541	1199.62500	179.44307	-812.45496	916.56702	236.18082	-783.04688	1058.91797	151.33192	-604.55963	1566.49402	327.51331	-798.08368	915.80627	124.49399	-662.22156	403.92526	197.13951	-896.75574	73.17275																						183.69002	-712.49615	1591.04712						 
31	0.300	359.37659	-443.92819	469.46295	342.01602	-713.06775	111.76497	476.68903	-636.79382	868.38251	82.59922	-673.84418	578.93903	498.04675	-757.07483	1057.03528	487.10818	-687.61139	949.49512	468.32077	-733.10455	1150.25342	351.94943	-609.19202	872.51196	141.04172	-773.61444	240.74504	438.73776	-614.60004	900.00085	395.63165	-561.34503	607.15381	60.64182	-593.10510	1312.07568	225.56860	-758.83496	31.78217	373.01111	-582.41656	356.28619	122.41405	-430.09167	922.97870	217.58492	-554.11658	1272.94666	115.45943	-627.22882	874.79803	369.18411	-618.57477	1317.05054	282.63547	-599.68756	1571.98315	219.69896	-532.49341	1100.18262	231.51485	-949.61304	57.60627	473.89456	-570.44702	848.47937	266.23181	-697.23016	1485.45105	23.26946	-487.95419	973.80890	199.12134	-676.98828	1355.68811	70.74950	-403.28583	918.03259	115.49776	-376.00024	841.53033	-30.32181	-596.98859	1131.94092	137.42006	-674.99194	1480.78796	-38.81047	-576.03033	1022.40686	352.37164	-767.41553	240.80774	304.74857	-826.65668	251.55563	296.20502	-750.90015	1202.06091	179.77861	-780.97784	917.87256	234.72041	-750.66876	1060.48096	151.54733	-572.81689	1568.10620	327.75540	-766.08118	918.61707	125.91089	-652.69440	401.62631	195.69185	-895.54846	76.05226																						183.93919	-680.85175	1592.69397						 
32	0.310	358.83636	-399.96548	485.30997	340.61688	-635.29089	103.21236	479.82095	-618.73578	877.82788	83.69330	-656.02997	579.71027	496.64447	-738.12012	1066.96252	488.33484	-669.19513	959.56348	467.04538	-709.90967	1158.56226	351.48309	-577.01556	875.71417	141.12981	-768.87061	242.99838	442.43222	-595.43127	909.01154	395.08142	-523.74396	616.17297	62.13329	-559.99994	1317.01855	225.47061	-758.92847	31.68205	372.47583	-528.99078	359.05725	133.97083	-386.26126	948.36407	219.52434	-522.08234	1276.25452	115.17133	-595.98633	875.93152	369.81943	-589.77991	1320.95007	283.34314	-567.45471	1575.63574	221.20192	-499.93280	1103.57520	229.71500	-948.99988	64.86463	479.90079	-552.51483	857.74078	267.61130	-665.02161	1488.88477	31.65688	-446.51840	987.97192	199.80156	-645.06873	1358.51453	82.78393	-359.45953	939.97028	135.53275	-324.55832	872.63898	-27.15956	-561.24744	1135.72498	138.80157	-643.17639	1483.45532	-32.55547	-536.69696	1027.39941	351.39569	-702.23541	226.06824	303.73468	-762.18707	231.14566	294.43945	-720.08807	1205.18164	180.17046	-748.77393	920.15308	233.00240	-717.83051	1062.86438	152.27948	-541.31219	1570.65918	327.79153	-733.58307	922.47162	126.88550	-643.82275	401.29114	194.23630	-894.04230	80.96830																						184.57957	-649.11090	1595.59656						 
33	0.320	358.65909	-358.30060	500.56107	338.96445	-556.03271	96.03997	482.15054	-599.69348	888.14331	84.83005	-636.51563	581.94647	494.64261	-717.18256	1077.98022	488.72223	-649.66754	970.65875	465.52820	-685.08478	1167.36841	351.04901	-543.86133	880.64136	140.95374	-763.62549	247.55545	445.78659	-575.46411	918.95099	394.82574	-486.35986	625.82660	63.99229	-526.62000	1322.49268	225.05403	-758.96625	31.42654	371.98495	-476.60776	361.12811	144.73586	-345.65024	975.33606	221.43779	-489.95026	1280.64856	114.46545	-563.81281	878.28009	370.09143	-560.47290	1325.92871	284.18188	-535.28406	1580.03674	223.10217	-466.91022	1108.07373	228.21655	-946.29053	73.72170	484.70972	-533.57861	867.76892	269.04047	-632.44537	1493.35278	39.64771	-406.84705	1003.12561	200.35587	-613.19507	1362.08228	94.63147	-318.29153	963.41412	154.77066	-277.00583	907.07855	-23.93823	-524.79480	1140.44617	140.25922	-611.36749	1487.35608	-26.93702	-497.83188	1033.45251	350.05148	-635.51624	210.85962	302.28510	-695.90967	210.78883	292.65497	-688.99658	1209.02966	180.42868	-715.74854	923.46210	231.12140	-684.65930	1065.96423	153.13411	-509.27457	1574.86292	327.54971	-700.85242	927.48224	127.24918	-635.12720	403.20667	192.78400	-891.25977	87.47920																						185.67361	-617.17444	1599.71545						 
34	0.330	358.51727	-319.37384	514.34277	334.93817	-477.30325	88.85067	483.75827	-579.61066	898.77313	85.59798	-615.30023	585.70557	492.10446	-695.01093	1089.68213	488.58267	-628.93530	982.10406	463.87997	-659.23944	1176.62610	351.96045	-508.09106	886.83093	140.41565	-757.09406	254.79706	448.32208	-553.11841	929.37946	394.81787	-449.19037	635.90729	65.82555	-493.19501	1328.72412	224.92650	-758.66083	31.04030	371.71768	-424.79605	362.04871	154.45856	-308.32278	1003.29169	223.52702	-457.69150	1285.92798	114.11434	-530.78278	881.28296	370.26428	-530.50916	1331.76758	285.52078	-502.81195	1585.01245	225.51474	-433.52484	1113.41406	226.91016	-941.83197	85.33521	488.32538	-513.76013	877.87061	270.64172	-600.60760	1498.49548	47.24662	-368.88147	1019.25665	200.74261	-581.32104	1366.31055	106.21606	-279.87656	987.85236	172.66084	-234.10942	943.75854	-20.58621	-487.61890	1146.13184	141.78201	-579.46521	1492.47791	-22.15010	-459.07291	1040.72192	348.33505	-567.57831	196.03487	300.76605	-627.87616	191.07687	290.85141	-657.52411	1213.64270	180.39619	-681.91180	927.69354	229.06610	-651.22144	1069.77808	154.42500	-477.32663	1579.47302	327.03906	-667.76672	933.14215	127.16408	-625.42554	407.62979	191.37842	-887.02356	96.20261																						187.18886	-584.99799	1604.91541						 
35	0.340	358.29080	-282.85410	525.90302	329.93997	-399.75296	81.83707	484.59140	-558.29718	909.44849	85.94318	-592.63940	591.19128	489.48026	-671.59833	1101.42236	487.94308	-606.96765	993.54144	462.14349	-632.64355	1186.51343	349.96085	-476.38522	893.21503	139.50256	-748.87488	264.44144	449.74237	-530.79047	939.64050	395.02988	-412.41229	646.20526	67.88568	-459.56918	1335.36755	224.87344	-757.62317	31.03853	371.48373	-373.48877	361.86420	163.18744	-274.07773	1031.76440	225.59813	-425.28732	1291.86401	114.48019	-496.39508	884.61066	370.62308	-500.01321	1338.19653	286.94949	-470.28220	1590.52356	228.14761	-399.95105	1119.46606	226.00241	-935.20056	99.57780	491.09695	-492.74860	887.86499	272.08957	-568.04089	1504.40247	54.21135	-332.28488	1036.36694	201.11729	-549.31409	1371.18689	117.23227	-243.99892	1013.35400	189.06206	-196.56543	980.82336	-17.15150	-449.83902	1152.69421	143.21115	-547.51642	1498.46252	-17.88963	-420.47928	1048.81567	346.20737	-498.50479	181.80176	299.11276	-558.03375	172.36313	289.18109	-625.68085	1219.14075	180.09360	-647.31860	932.73248	226.93787	-617.55432	1074.28186	155.80582	-445.02487	1585.21716	326.31207	-634.16223	939.51245	126.69396	-613.43549	414.35446	190.04483	-880.92285	107.31779																						188.85446	-552.55078	1611.06445						 
36	0.350	357.77725	-248.23009	535.06989	324.48941	-321.90710	75.53461	484.67123	-535.81561	919.94873	85.92719	-568.93951	598.07605	486.75812	-647.08289	1113.11487	486.89096	-583.71570	1004.71216	460.33713	-605.49567	1196.74402	349.55063	-441.92624	900.84857	138.17763	-738.59418	275.94055	450.89346	-507.56967	949.81824	395.28815	-376.42538	656.28210	70.07281	-425.88455	1342.40027	224.76163	-756.37427	30.99385	371.01929	-323.22961	361.02490	170.65523	-242.22275	1060.12073	227.59851	-392.75778	1298.23450	115.43166	-460.57245	888.15979	371.09625	-469.02084	1344.90186	288.31549	-437.83685	1596.46887	230.96530	-366.33423	1126.22302	225.07924	-925.54596	115.41685	492.91220	-470.54892	897.40765	273.59204	-536.01001	1510.75745	60.55988	-297.09772	1053.95764	201.54405	-517.18622	1376.58472	127.94005	-210.40645	1038.94739	203.28479	-162.54071	1017.97375	-13.77529	-411.96863	1159.96545	144.67409	-515.54480	1505.08386	-14.32060	-382.58118	1057.41406	343.99783	-428.82288	168.48851	296.49063	-486.64905	155.00755	287.69171	-593.60223	1225.38684	179.58095	-611.98230	938.31311	225.06685	-583.57928	1079.33093	157.78357	-412.70963	1591.11206	325.37738	-600.09265	946.29932	125.83810	-599.00269	422.56894	188.75218	-872.39117	120.39624																						190.73421	-519.88971	1617.65894						 
37	0.360	356.98029	-215.21454	542.17944	319.04398	-245.19937	69.40257	484.00607	-512.03522	929.77521	85.75888	-543.83728	606.06360	484.09592	-621.52802	1124.42664	485.68109	-559.14886	1015.49377	458.59628	-577.62518	1207.19214	349.06961	-406.98236	908.86517	136.85817	-725.95221	288.47708	451.14529	-482.34900	959.63995	395.64502	-341.32022	665.62128	72.48992	-392.23029	1349.81152	224.42503	-755.02197	31.06219	370.10248	-274.55234	359.63367	176.45738	-212.53003	1087.45703	229.64479	-360.16260	1304.92981	116.43005	-423.95364	892.37231	371.85818	-437.46799	1351.73462	289.69705	-405.26465	1602.73706	233.48964	-332.91599	1133.02808	223.89438	-911.72290	132.30435	493.93887	-447.12720	906.41205	275.02460	-503.68692	1517.48535	65.93682	-263.12311	1071.49255	202.14326	-484.69724	1382.45715	137.24928	-178.84145	1063.88660	215.46883	-132.10501	1053.69922	-10.60261	-374.16660	1167.96008	146.11688	-483.40109	1512.00879	-11.69966	-344.94019	1066.51428	341.44339	-358.74268	156.54356	293.31525	-414.35928	139.77783	286.50391	-561.18610	1232.00928	178.86763	-575.95892	944.32990	223.45695	-549.46686	1084.77808	159.22464	-380.29388	1597.65125	324.18903	-565.47339	953.26483	124.74323	-582.13593	431.74130	187.45766	-861.23737	134.42662																						192.43613	-487.16547	1624.63232						 
